<?xml version="1.0" encoding="UTF-8" standalone="no"?>
<svg width="63px" height="79px" viewBox="0 0 63 79" version="1.1" xmlns="http://www.w3.org/2000/svg" xmlns:xlink="http://www.w3.org/1999/xlink">
    <!-- Generator: Sketch 40.3 (33839) - http://www.bohemiancoding.com/sketch -->
    <title>Group 2</title>
    <desc>Created with Sketch.</desc>
    <defs></defs>
    <g id="Page-1" stroke="none" stroke-width="1" fill="none" fill-rule="evenodd">
        <g id="Desktop-HD-Copy-8" transform="translate(-682.000000, -2835.000000)" fill="#50E3C2">
            <g id="Group-2" transform="translate(685.000000, 2837.000000)">
                <g transform="translate(-4.000000, -4.000000)">
                    <path d="M99.7541249,49.503909 C99.7541249,22.6616957 77.455089,0.945328059 50,0.945328059 C22.544911,0.945328059 0.24587515,22.6616957 0.24587515,49.503909 C0.24587515,76.3461223 22.544911,98.0624899 50,98.0624899 C77.455089,98.0624899 99.7541249,76.3461223 99.7541249,49.503909 Z M8.24587515,49.503909 C8.24587515,27.1280729 26.9164782,8.94532806 50,8.94532806 C73.0835218,8.94532806 91.7541249,27.1280729 91.7541249,49.503909 C91.7541249,71.8797451 73.0835218,90.0624899 50,90.0624899 C26.9164782,90.0624899 8.24587515,71.8797451 8.24587515,49.503909 Z" id="Oval"></path>
                    <path d="M51.6233188,52.1797209 C51.1003408,52.5947792 50.4061809,52.8587983 49.6320688,52.860374 C48.8555237,52.8619546 48.1570623,52.5989244 47.6305251,52.1825366 C47.3082296,51.9276641 47.1049697,51.6659148 46.9833228,51.4289781 L83.7782722,123.095991 C82.9198686,121.424044 84.3626561,119.054672 86.2464454,119.054672 L13.003487,119.054672 C14.8816373,119.054672 16.331795,121.420672 15.4716602,123.095991 L52.2666096,51.4289781 C52.1452744,51.6653076 51.9431389,51.9258977 51.6233188,52.1797209 Z M8.35484034,119.442106 C6.47844515,123.096837 8.90426294,127.054672 13.003487,127.054672 L86.2464454,127.054672 C90.35263,127.054672 92.7674604,123.088994 90.895092,119.442106 L54.1001426,47.7750931 C52.10227,43.8837557 47.1424793,43.8938511 45.1497898,47.7750931 L8.35484034,119.442106 Z" id="Triangle"></path>
                </g>
            </g>
        </g>
    </g>
</svg>