<?xml version="1.0" encoding="UTF-8" standalone="no"?>
<svg width="73px" height="73px" viewBox="0 0 73 73" version="1.1" xmlns="http://www.w3.org/2000/svg" xmlns:xlink="http://www.w3.org/1999/xlink">
    <!-- Generator: Sketch 40.3 (33839) - http://www.bohemiancoding.com/sketch -->
    <title>socialgood</title>
    <desc>Created with Sketch.</desc>
    <defs></defs>
    <g id="Page-1" stroke="none" stroke-width="1" fill="none" fill-rule="evenodd">
        <g id="Desktop-HD-Copy-8" transform="translate(-1029.000000, -3154.000000)" fill="#50E3C2">
            <g id="socialgood" transform="translate(1029.000000, 3154.000000)">
                <path d="M130,65 C130,29.1014913 100.898509,0 65,0 C29.1014913,0 0,29.1014913 0,65 C0,100.898509 29.1014913,130 65,130 C100.898509,130 130,100.898509 130,65 Z M8,65 C8,33.5197693 33.5197693,8 65,8 C96.4802307,8 122,33.5197693 122,65 C122,96.4802307 96.4802307,122 65,122 C33.5197693,122 8,96.4802307 8,65 Z" id="Oval"></path>
                <polygon id="Line" points="60.8852838 67.3823564 61.7392797 64.94388 25.8541242 110.638825 23.3836049 113.7847 29.6753565 118.725739 32.1458758 115.579863 68.0310313 69.8849186 68.8740926 68.8113928 68.8850272 67.4464421 69.3850272 5.03204286 69.41707 1.0321712 61.4173267 0.968085486 61.3852838 4.96795714"></polygon>
                <polygon id="Line-Copy" points="61.5001283 67.4464421 61.5124915 68.9897196 62.55823 70.1247479 101.16597 112.028985 103.876319 114.970755 109.759859 109.550058 107.04951 106.608288 68.44177 64.7040507 69.4998717 67.3823564 68.9998717 4.96795714 68.9678288 0.968085486 60.9680855 1.0321712 61.0001283 5.03204286"></polygon>
            </g>
        </g>
    </g>
</svg>