<?xml version="1.0" encoding="UTF-8" standalone="no"?>
<svg width="79px" height="79px" viewBox="0 0 79 79" version="1.1" xmlns="http://www.w3.org/2000/svg" xmlns:xlink="http://www.w3.org/1999/xlink">
    <!-- Generator: Sketch 40.3 (33839) - http://www.bohemiancoding.com/sketch -->
    <title>sustain</title>
    <desc>Created with Sketch.</desc>
    <defs></defs>
    <g id="Page-1" stroke="none" stroke-width="1" fill="none" fill-rule="evenodd">
        <g id="Desktop-HD-Copy-8" transform="translate(-314.000000, -3146.000000)" fill="#50E3C2">
            <g id="sustain" transform="translate(314.000000, 3146.000000)">
                <g id="Group-3">
                    <path d="M131.5,66 C131.5,29.8253489 102.174651,0.5 66,0.5 C29.8253489,0.5 0.5,29.8253489 0.5,66 C0.5,102.174651 29.8253489,131.5 66,131.5 C102.174651,131.5 131.5,102.174651 131.5,66 Z M9.5,66 C9.5,34.7959116 34.7959116,9.5 66,9.5 C97.2040884,9.5 122.5,34.7959116 122.5,66 C122.5,97.2040884 97.2040884,122.5 66,122.5 C34.7959116,122.5 9.5,97.2040884 9.5,66 Z" id="Oval"></path>
                    <path d="M74,34.5 C74,30.3578644 70.6421356,27 66.5,27 C62.3578644,27 59,30.3578644 59,34.5 C59,38.6421356 62.3578644,42 66.5,42 C70.6421356,42 74,38.6421356 74,34.5 Z M67,34.5 C67,34.7761424 66.7761424,35 66.5,35 C66.2238576,35 66,34.7761424 66,34.5 C66,34.2238576 66.2238576,34 66.5,34 C66.7761424,34 67,34.2238576 67,34.5 Z" id="Oval-Copy"></path>
                    <path d="M47,67.5 C47,63.3578644 43.6421356,60 39.5,60 C35.3578644,60 32,63.3578644 32,67.5 C32,71.6421356 35.3578644,75 39.5,75 C43.6421356,75 47,71.6421356 47,67.5 Z M40,67.5 C40,67.7761424 39.7761424,68 39.5,68 C39.2238576,68 39,67.7761424 39,67.5 C39,67.2238576 39.2238576,67 39.5,67 C39.7761424,67 40,67.2238576 40,67.5 Z" id="Oval-Copy-3"></path>
                    <path d="M74,97.5 C74,93.3578644 70.6421356,90 66.5,90 C62.3578644,90 59,93.3578644 59,97.5 C59,101.642136 62.3578644,105 66.5,105 C70.6421356,105 74,101.642136 74,97.5 Z M67,97.5 C67,97.7761424 66.7761424,98 66.5,98 C66.2238576,98 66,97.7761424 66,97.5 C66,97.2238576 66.2238576,97 66.5,97 C66.7761424,97 67,97.2238576 67,97.5 Z" id="Oval-Copy-2"></path>
                    <path d="M100,67.5 C100,63.3578644 96.6421356,60 92.5,60 C88.3578644,60 85,63.3578644 85,67.5 C85,71.6421356 88.3578644,75 92.5,75 C96.6421356,75 100,71.6421356 100,67.5 Z M93,67.5 C93,67.7761424 92.7761424,68 92.5,68 C92.2238576,68 92,67.7761424 92,67.5 C92,67.2238576 92.2238576,67 92.5,67 C92.7761424,67 93,67.2238576 93,67.5 Z" id="Oval-Copy-4"></path>
                </g>
            </g>
        </g>
    </g>
</svg>