<?xml version="1.0" encoding="UTF-8" standalone="no"?>
<svg width="1299px" height="865px" viewBox="0 0 1299 865" version="1.1" xmlns="http://www.w3.org/2000/svg" xmlns:xlink="http://www.w3.org/1999/xlink">
    <!-- Generator: Sketch 40.3 (33839) - http://www.bohemiancoding.com/sketch -->
    <title>triangle stuff</title>
    <desc>Created with Sketch.</desc>
    <defs></defs>
    <g id="Page-1" stroke="none" stroke-width="1" fill="none" fill-rule="evenodd">
        <g id="Desktop-HD-Copy-8" transform="translate(-56.000000, -2697.000000)">
            <g id="triangle-stuff" transform="translate(56.000000, 2707.000000)">
                <polygon id="Triangle-2" stroke="#728490" stroke-width="9" points="657 0 1082 850 232 850"></polygon>
                <polygon id="Rectangle-5" fill="#323B41" points="336 91 987 91 987 479 388.694167 479"></polygon>
                <rect id="Rectangle-5-Copy" fill="#323B41" x="713" y="520" width="586" height="249"></rect>
                <rect id="Rectangle-5-Copy-2" fill="#323B41" x="0" y="520" width="586" height="249"></rect>
                <text id="We-believe-in-the-Em" font-family="HelveticaNeue, Helvetica Neue" font-size="40" font-weight="normal" fill="#D7F9F2">
                    <tspan x="505.52" y="270">We believe in the </tspan>
                    <tspan x="452.12" y="317">Empowerment through </tspan>
                    <tspan x="413.48" y="364">accessibility + engagement </tspan>
                    <tspan x="530.64" y="411">of community. </tspan>
                </text>
                <text id="We-promote-social-re" font-family="HelveticaNeue, Helvetica Neue" font-size="40" font-weight="normal" fill="#D7F9F2">
                    <tspan x="126.7" y="600">We promote social </tspan>
                    <tspan x="68.5" y="647">responsiblity and provide </tspan>
                    <tspan x="125.54" y="694">methods of action.</tspan>
                </text>
                <text id="We-champion-work-tha" font-family="HelveticaNeue, Helvetica Neue" font-size="40" font-weight="normal" fill="#D7F9F2">
                    <tspan x="734.86" y="583">We champion work that uplifts </tspan>
                    <tspan x="734.04" y="630">the community, incites change </tspan>
                    <tspan x="750.38" y="677">and is uniquely sustained for </tspan>
                    <tspan x="804.48" y="724">continued profitablility.</tspan>
                </text>
                <g id="sustain" transform="translate(258.000000, 439.000000)" fill="#50E3C2">
                    <g id="Group-3">
                        <path d="M131.5,66 C131.5,29.8253489 102.174651,0.5 66,0.5 C29.8253489,0.5 0.5,29.8253489 0.5,66 C0.5,102.174651 29.8253489,131.5 66,131.5 C102.174651,131.5 131.5,102.174651 131.5,66 Z M9.5,66 C9.5,34.7959116 34.7959116,9.5 66,9.5 C97.2040884,9.5 122.5,34.7959116 122.5,66 C122.5,97.2040884 97.2040884,122.5 66,122.5 C34.7959116,122.5 9.5,97.2040884 9.5,66 Z" id="Oval"></path>
                        <path d="M74,34.5 C74,30.3578644 70.6421356,27 66.5,27 C62.3578644,27 59,30.3578644 59,34.5 C59,38.6421356 62.3578644,42 66.5,42 C70.6421356,42 74,38.6421356 74,34.5 Z M67,34.5 C67,34.7761424 66.7761424,35 66.5,35 C66.2238576,35 66,34.7761424 66,34.5 C66,34.2238576 66.2238576,34 66.5,34 C66.7761424,34 67,34.2238576 67,34.5 Z" id="Oval-Copy"></path>
                        <path d="M47,67.5 C47,63.3578644 43.6421356,60 39.5,60 C35.3578644,60 32,63.3578644 32,67.5 C32,71.6421356 35.3578644,75 39.5,75 C43.6421356,75 47,71.6421356 47,67.5 Z M40,67.5 C40,67.7761424 39.7761424,68 39.5,68 C39.2238576,68 39,67.7761424 39,67.5 C39,67.2238576 39.2238576,67 39.5,67 C39.7761424,67 40,67.2238576 40,67.5 Z" id="Oval-Copy-3"></path>
                        <path d="M74,97.5 C74,93.3578644 70.6421356,90 66.5,90 C62.3578644,90 59,93.3578644 59,97.5 C59,101.642136 62.3578644,105 66.5,105 C70.6421356,105 74,101.642136 74,97.5 Z M67,97.5 C67,97.7761424 66.7761424,98 66.5,98 C66.2238576,98 66,97.7761424 66,97.5 C66,97.2238576 66.2238576,97 66.5,97 C66.7761424,97 67,97.2238576 67,97.5 Z" id="Oval-Copy-2"></path>
                        <path d="M100,67.5 C100,63.3578644 96.6421356,60 92.5,60 C88.3578644,60 85,63.3578644 85,67.5 C85,71.6421356 88.3578644,75 92.5,75 C96.6421356,75 100,71.6421356 100,67.5 Z M93,67.5 C93,67.7761424 92.7761424,68 92.5,68 C92.2238576,68 92,67.7761424 92,67.5 C92,67.2238576 92.2238576,67 92.5,67 C92.7761424,67 93,67.2238576 93,67.5 Z" id="Oval-Copy-4"></path>
                    </g>
                </g>
                <g id="socialgood" transform="translate(973.000000, 447.000000)" fill="#50E3C2">
                    <path d="M130,65 C130,29.1014913 100.898509,0 65,0 C29.1014913,0 0,29.1014913 0,65 C0,100.898509 29.1014913,130 65,130 C100.898509,130 130,100.898509 130,65 Z M8,65 C8,33.5197693 33.5197693,8 65,8 C96.4802307,8 122,33.5197693 122,65 C122,96.4802307 96.4802307,122 65,122 C33.5197693,122 8,96.4802307 8,65 Z" id="Oval"></path>
                    <polygon id="Line" points="60.8852838 67.3823564 61.7392797 64.94388 25.8541242 110.638825 23.3836049 113.7847 29.6753565 118.725739 32.1458758 115.579863 68.0310313 69.8849186 68.8740926 68.8113928 68.8850272 67.4464421 69.3850272 5.03204286 69.41707 1.0321712 61.4173267 0.968085486 61.3852838 4.96795714"></polygon>
                    <polygon id="Line-Copy" points="61.5001283 67.4464421 61.5124915 68.9897196 62.55823 70.1247479 101.16597 112.028985 103.876319 114.970755 109.759859 109.550058 107.04951 106.608288 68.44177 64.7040507 69.4998717 67.3823564 68.9998717 4.96795714 68.9678288 0.968085486 60.9680855 1.0321712 61.0001283 5.03204286"></polygon>
                </g>
                <g id="Group-2" transform="translate(629.000000, 130.000000)" fill="#50E3C2">
                    <g transform="translate(-4.000000, -4.000000)">
                        <path d="M99.7541249,49.503909 C99.7541249,22.6616957 77.455089,0.945328059 50,0.945328059 C22.544911,0.945328059 0.24587515,22.6616957 0.24587515,49.503909 C0.24587515,76.3461223 22.544911,98.0624899 50,98.0624899 C77.455089,98.0624899 99.7541249,76.3461223 99.7541249,49.503909 Z M8.24587515,49.503909 C8.24587515,27.1280729 26.9164782,8.94532806 50,8.94532806 C73.0835218,8.94532806 91.7541249,27.1280729 91.7541249,49.503909 C91.7541249,71.8797451 73.0835218,90.0624899 50,90.0624899 C26.9164782,90.0624899 8.24587515,71.8797451 8.24587515,49.503909 Z" id="Oval"></path>
                        <path d="M51.6233188,52.1797209 C51.1003408,52.5947792 50.4061809,52.8587983 49.6320688,52.860374 C48.8555237,52.8619546 48.1570623,52.5989244 47.6305251,52.1825366 C47.3082296,51.9276641 47.1049697,51.6659148 46.9833228,51.4289781 L83.7782722,123.095991 C82.9198686,121.424044 84.3626561,119.054672 86.2464454,119.054672 L13.003487,119.054672 C14.8816373,119.054672 16.331795,121.420672 15.4716602,123.095991 L52.2666096,51.4289781 C52.1452744,51.6653076 51.9431389,51.9258977 51.6233188,52.1797209 Z M8.35484034,119.442106 C6.47844515,123.096837 8.90426294,127.054672 13.003487,127.054672 L86.2464454,127.054672 C90.35263,127.054672 92.7674604,123.088994 90.895092,119.442106 L54.1001426,47.7750931 C52.10227,43.8837557 47.1424793,43.8938511 45.1497898,47.7750931 L8.35484034,119.442106 Z" id="Triangle"></path>
                    </g>
                </g>
            </g>
        </g>
    </g>
</svg>