<?xml version="1.0" encoding="UTF-8"?>
<svg width="149px" height="100px" viewBox="0 0 149 100" version="1.1" xmlns="http://www.w3.org/2000/svg" xmlns:xlink="http://www.w3.org/1999/xlink">
    <!-- Generator: Sketch 50.2 (55047) - http://www.bohemiancoding.com/sketch -->
    <title>email-svgrepo-com copy</title>
    <desc>Created with Sketch.</desc>
    <defs></defs>
    <g id="Page-1" stroke="none" stroke-width="1" fill="none" fill-rule="evenodd">
        <g id="email-svgrepo-com-copy" fill="#50E3C2" fill-rule="nonzero">
            <path d="M12.517,100 L136.455,100 C143.088,100 148.486,94.615 148.486,87.996 L148.486,12.004 C148.486,5.416 143.136,0.061 136.546,0.01 C136.525,0.009 136.506,0 136.486,0 L136.455,0 L12.517,0 L12.486,0 C12.465,0 12.446,0.009 12.426,0.01 C5.836,0.061 0.486,5.416 0.486,12.004 L0.486,87.996 C0.484,94.615 5.883,100 12.517,100 Z M13.773,92 L54.772,47.584 L71.806,62.969 C72.567,63.656 73.525,64 74.484,64 C75.444,64 76.402,63.656 77.164,62.969 L94.197,47.584 L135.197,92 L13.773,92 Z M137.737,8.257 C139.323,8.796 140.485,10.247 140.485,12.003 L140.485,85.938 L100.133,42.223 L137.737,8.257 Z M126.091,8 L74.484,54.609 L22.88,8 L126.091,8 Z M8.484,12.004 C8.484,10.248 9.646,8.797 11.232,8.258 L48.836,42.224 L8.484,85.938 L8.484,12.004 Z" id="Shape"></path>
        </g>
    </g>
</svg>