<?xml version="1.0" encoding="UTF-8" standalone="no"?>
<svg width="188px" height="268px" viewBox="0 0 188 268" version="1.1" xmlns="http://www.w3.org/2000/svg" xmlns:xlink="http://www.w3.org/1999/xlink">
    <!-- Generator: Sketch 41 (35326) - http://www.bohemiancoding.com/sketch -->
    <title>tail</title>
    <desc>Created with Sketch.</desc>
    <defs></defs>
    <g id="Website-Change" stroke="none" stroke-width="1" fill="none" fill-rule="evenodd">
        <g id="Desktop-HD-Copy" transform="translate(-335.000000, -2192.000000)" stroke="#728490">
            <g id="Group" transform="translate(343.000000, 2198.000000)">
                <g id="tail">
                    <polygon id="Triangle-2" stroke-width="5" fill="#728490" transform="translate(24.799065, 30.695956) rotate(270.000000) translate(-24.799065, -30.695956) " points="13.3432641 5.89689041 55.4950213 51.9954377 -5.89689041 55.4950213 16.9875632 36.8895315"></polygon>
                    <path d="M18.1307572,65.6664328 C17.2478926,82.9375891 9.10457535,97.5110553 7.81883427,115.322294 C6.17192136,138.136808 1.37467987,173.677827 14.764049,197.121911 C33.9337889,230.687121 80.1310987,198.136466 87.6490912,171.625697 C99.0480356,131.42949 53.6549052,141.882091 40.2901399,167.968887 C19.4811776,208.586074 54.1324254,231.366448 89.5420373,238.330497 C102.785055,240.935016 117.042862,243.487221 128.715872,235.44122 C143.109006,225.520286 146.198362,211.648318 147.587971,195.044278 C148.226004,187.420599 142.065543,181.329839 133.944639,184.784037 C119.167557,191.069418 116.308287,234.280552 127.012662,243.345929 C144.23761,257.933483 159.984373,258.90473 181.435964,259.636156" id="Path-2" stroke-width="3" stroke-dasharray="3"></path>
                </g>
            </g>
        </g>
    </g>
</svg>