<?xml version="1.0" encoding="UTF-8"?>
<svg width="328px" height="230px" viewBox="0 0 328 230" version="1.1" xmlns="http://www.w3.org/2000/svg" xmlns:xlink="http://www.w3.org/1999/xlink">
    <!-- Generator: Sketch 40 (33762) - http://www.bohemiancoding.com/sketch -->
    <title>Artboard</title>
    <desc>Created with Sketch.</desc>
    <defs></defs>
    <g id="Page-1" stroke="none" stroke-width="1" fill="none" fill-rule="evenodd">
        <g id="Artboard" fill="#FFFFFF">
            <path d="M60.32,172.266 L51.732,172.266 L51.732,181.766 L44.588,181.766 L44.588,172.266 L36,172.266 L36,198.486 L44.588,198.486 L44.588,188.796 L51.732,188.796 L51.732,198.486 L60.32,198.486 L60.32,172.266 Z M82.4866664,172.266 L72.9866664,172.266 L63.8666664,198.486 L72.7966664,198.486 L73.7846664,194.8 L81.2706664,194.8 L82.2966664,198.486 L91.6066664,198.486 L82.4866664,172.266 Z M75.6086664,188.226 L77.5466664,181.196 L79.4846664,188.226 L75.6086664,188.226 Z M117.953333,172.266 L109.289333,172.266 L109.289333,187.656 C109.289333,189.176 109.023333,189.936 108.453333,190.506 C107.883333,191.076 107.123333,191.456 105.983333,191.456 C104.843333,191.456 104.083333,191.076 103.513333,190.506 C102.943333,189.936 102.639333,189.214 102.639333,187.656 L102.639333,172.266 L94.0133328,172.266 L94.0133328,187.276 C94.0133328,191.456 94.9633328,193.926 96.8633328,195.826 C98.7633328,197.726 101.803333,198.904 105.983333,198.904 C110.163333,198.904 113.203333,197.726 115.103333,195.826 C117.003333,193.926 117.953333,191.456 117.953333,187.276 L117.953333,172.266 Z M142.969999,189.86 C142.969999,187.086 141.829999,185.3 140.499999,184.16 C139.169999,183.02 137.041999,182.26 136.129999,181.956 C135.217999,181.652 133.621999,181.196 133.013999,181.006 C132.405999,180.816 131.189999,180.55 131.189999,179.79 C131.189999,178.992 131.949999,178.726 133.317999,178.726 C134.685999,178.726 137.573999,179.486 139.549999,181.234 L142.817999,175.154 C140.537999,173.254 136.965999,172 133.469999,172 C129.973999,172 127.351999,172.95 125.755999,174.28 C124.197999,175.572 122.715999,177.776 122.715999,180.626 C122.715999,183.476 123.779999,185.072 125.109999,186.212 C126.439999,187.352 127.959999,187.846 128.719999,188.15 C129.479999,188.416 131.569999,189.1 132.519999,189.366 C133.469999,189.67 134.419999,189.974 134.419999,190.734 C134.419999,191.494 133.621999,191.836 132.481999,191.836 C131.341999,191.836 127.921999,191.038 125.489999,188.986 L121.689999,195.446 C125.261999,198.106 128.757999,198.942 131.797999,198.942 C134.837999,198.942 137.459999,198.296 139.549999,196.7 C141.639999,195.066 142.969999,192.596 142.969999,189.86 L142.969999,189.86 Z" id="HAUS-Copy-5"></path>
            <path d="M79.7568359,29.3139648 C78.9023395,28.1746362 77.7487866,27.3771182 76.2961426,26.9213867 C74.8434986,26.4656553 73.4905662,26.237793 72.2373047,26.237793 C69.502916,26.237793 67.2527758,26.8501729 65.4868164,28.0749512 C63.7208571,29.2997294 62.3252004,30.909007 61.2998047,32.902832 C60.2744089,34.8966571 59.5480978,37.132556 59.1208496,39.6105957 C58.6936014,42.0886354 58.4799805,44.5808794 58.4799805,47.0874023 L58.4799805,65.4589844 L82.0639648,65.4589844 L82.0639648,72.2949219 L58.4799805,72.722168 L58.6508789,134.416504 C58.6508789,136.752128 58.6223961,138.81713 58.5654297,140.611572 C58.5084633,142.406015 58.280601,144.30012 57.8818359,146.293945 L68.9047852,145.78125 L68.9047852,152.958984 L33.2724609,152.958984 L33.2724609,147.746582 C35.9498832,147.746582 37.9864025,147.21965 39.3820801,146.165771 C40.7777576,145.111893 41.7888966,143.645029 42.4155273,141.765137 C43.0421581,139.885245 43.3839515,137.635104 43.440918,135.014648 C43.4978844,132.394193 43.5263672,129.517431 43.5263672,126.384277 L43.3554688,73.0639648 L29,73.3203125 L29,65.4589844 L43.3554688,65.4589844 L43.3554688,61.784668 C43.3554688,55.2904949 43.9108831,49.4657647 45.0217285,44.3103027 C46.1325739,39.1548408 47.941231,34.7827328 50.4477539,31.1938477 C52.9542769,27.6049625 56.2155561,24.8421321 60.2316895,22.9052734 C64.2478228,20.9684148 69.132621,20 74.8862305,20 C76.7661227,20 78.802642,20.2421037 80.9958496,20.7263184 C83.1890572,21.210533 85.2113351,21.9795683 87.0627441,23.0334473 C88.9141531,24.0873262 90.4664651,25.4260173 91.7197266,27.0495605 C92.972988,28.6731038 93.5996094,30.6241748 93.5996094,32.902832 C93.5996094,35.2384557 92.9160225,37.1468025 91.5488281,38.6279297 C90.1816338,40.1090569 88.4441837,40.8496094 86.3364258,40.8496094 C84.8552986,40.8496094 83.6590215,40.6075057 82.7475586,40.123291 C81.8360957,39.6390764 81.0813018,39.0266964 80.4831543,38.2861328 C79.8850068,37.5455692 79.457765,36.7480511 79.201416,35.8935547 C78.9450671,35.0390582 78.8168945,34.2700229 78.8168945,33.5864258 C78.8168945,32.9028286 78.8881015,32.2050003 79.0305176,31.4929199 C79.1729337,30.7808395 79.4150374,30.0545284 79.7568359,29.3139648 L79.7568359,29.3139648 Z M125.21709,69.3041992 C120.602809,69.3041992 116.657943,70.3295796 113.382373,72.3803711 C110.106803,74.4311626 107.41518,77.1655103 105.307422,80.5834961 C103.199664,84.0014819 101.647352,87.9321067 100.650439,92.3754883 C99.6535267,96.8188699 99.1550779,101.433082 99.1550779,106.218262 C99.1550779,111.630073 99.7104923,116.899388 100.821338,122.026367 C101.932183,127.153346 103.626909,131.696351 105.905566,135.655518 C108.184223,139.614685 111.046744,142.790515 114.493213,145.183105 C117.939682,147.575696 121.969996,148.771973 126.584277,148.771973 C131.198558,148.771973 135.086459,147.732351 138.248096,145.653076 C141.409732,143.573801 143.973183,140.825212 145.938525,137.407227 C147.903867,133.989241 149.313765,130.087099 150.168262,125.700684 C151.022758,121.314268 151.45,116.813988 151.45,112.199707 C151.45,106.958795 150.965792,101.774928 149.997363,96.6479492 C149.028934,91.5209705 147.490863,86.9352416 145.383105,82.890625 C143.275347,78.8460084 140.555241,75.5704878 137.222705,73.0639648 C133.890169,70.5574419 129.888337,69.3041992 125.21709,69.3041992 L125.21709,69.3041992 Z M125.21709,62.6391602 C131.369464,62.6391602 137.122987,63.7642303 142.477832,66.0144043 C147.832676,68.2645783 152.489612,71.3692022 156.448779,75.3283691 C160.407946,79.2875361 163.541053,83.9871961 165.848193,89.4274902 C168.155334,94.8677844 169.308887,100.74948 169.308887,107.072754 C169.308887,113.851759 168.183816,120.203421 165.933642,126.12793 C163.683468,132.052438 160.578844,137.207823 156.619678,141.594238 C152.660511,145.980653 147.989333,149.441312 142.606006,151.976318 C137.222678,154.511325 131.426431,155.778809 125.21709,155.778809 C119.064715,155.778809 113.325433,154.682221 107.999072,152.489014 C102.672711,150.295806 98.0300163,147.233906 94.0708494,143.303223 C90.1116825,139.372539 86.9928172,134.68712 84.71416,129.246826 C82.4355027,123.806532 81.2961912,117.839388 81.2961912,111.345215 C81.2961912,104.452277 82.4212613,98.029408 84.6714354,92.076416 C86.9216094,86.123424 90.0119919,80.9680394 93.9426756,76.6101074 C97.8733593,72.2521755 102.516054,68.8342409 107.870898,66.3562012 C113.225743,63.8781614 119.007749,62.6391602 125.21709,62.6391602 L125.21709,62.6391602 Z M215.709082,158.684082 C212.461995,158.570149 209.328888,158.427735 206.309668,158.256836 C203.290447,158.085937 200.413685,157.772626 197.679296,157.316895 C194.43221,159.424652 191.939966,161.988103 190.20249,165.007324 C188.465014,168.026545 187.596289,171.2451 187.596289,174.663086 C187.596289,177.568374 188.294117,180.174549 189.689795,182.481689 C191.085472,184.78883 193.079267,186.768384 195.67124,188.42041 C198.263212,190.072437 201.396319,191.339921 205.070654,192.2229 C208.744989,193.10588 212.832269,193.547363 217.332617,193.547363 C222.345663,193.547363 226.831702,193.034673 230.790869,192.009277 C234.750036,190.983882 238.096763,189.616708 240.831152,187.907715 C243.565541,186.198722 245.644784,184.219168 247.068945,181.968994 C248.493106,179.71882 249.205175,177.340507 249.205175,174.833984 C249.205175,171.586898 248.364933,168.95224 246.684423,166.929932 C245.003914,164.907623 242.668325,163.312587 239.677588,162.144775 C236.68685,160.976964 233.154984,160.150963 229.081884,159.666748 C225.008785,159.182533 220.551228,158.854981 215.709082,158.684082 L215.709082,158.684082 Z M214.170996,68.7915039 C211.037842,68.7915039 208.246529,69.4181252 205.796972,70.6713867 C203.347416,71.9246482 201.282414,73.6620983 199.601904,75.8837891 C197.921394,78.1054799 196.639669,80.7258964 195.756689,83.7451172 C194.873709,86.764338 194.432226,90.0113759 194.432226,93.4863281 C194.432226,97.701844 194.887951,101.532779 195.799414,104.979248 C196.710877,108.425717 198.049568,111.402168 199.815527,113.908691 C201.581486,116.415214 203.746178,118.352044 206.309668,119.719238 C208.873157,121.086433 211.778401,121.77002 215.025488,121.77002 C218.272574,121.77002 221.106612,121.171881 223.527685,119.975586 C225.948758,118.779291 227.971036,117.113048 229.59458,114.976807 C231.218123,112.840565 232.442883,110.305597 233.268896,107.371826 C234.094909,104.438055 234.50791,101.262224 234.50791,97.8442383 C234.50791,94.0274874 234.080668,90.3532078 233.226171,86.8212891 C232.371675,83.2893704 231.08995,80.1989879 229.380957,77.5500488 C227.671964,74.9011098 225.549996,72.7791421 223.01499,71.184082 C220.479984,69.589022 217.532015,68.7915039 214.170996,68.7915039 L214.170996,68.7915039 Z M252.452246,61.9555664 C250.971119,62.1834321 249.66091,62.6533981 248.521582,63.3654785 C247.382253,64.0775589 246.385355,64.9747667 245.530859,66.0571289 C244.676363,67.1394911 243.978534,68.3215268 243.437353,69.6032715 C242.896172,70.8850162 242.483172,72.180983 242.198339,73.4912109 C245.103627,76.1686332 247.396492,79.3017399 249.077002,82.890625 C250.757511,86.4795101 251.597754,90.2962037 251.597754,94.3408203 C251.597754,99.2968998 250.586615,103.839904 248.564306,107.969971 C246.541998,112.100037 243.821892,115.660385 240.403906,118.651123 C236.98592,121.641861 233.041054,123.963208 228.569189,125.615234 C224.097324,127.267261 219.411906,128.093262 214.512793,128.093262 C212.348068,128.093262 210.42548,127.950848 208.74497,127.666016 C207.064461,127.381183 205.084907,127.23877 202.80625,127.23877 C200.641525,127.23877 198.661971,127.523597 196.867529,128.093262 C195.073086,128.662926 193.563499,129.446203 192.33872,130.443115 C191.113942,131.440028 190.302183,132.408443 189.903418,133.348389 C189.504653,134.288335 189.305273,135.100094 189.305273,135.783691 C189.305273,136.467289 189.419204,137.179358 189.64707,137.919922 C190.045835,139.287116 190.971526,140.397945 192.42417,141.252441 C193.876814,142.106938 195.770919,142.776283 198.106543,143.260498 C200.442166,143.744713 203.219238,144.100748 206.437841,144.328613 C209.656445,144.556479 213.288,144.755859 217.332617,144.926758 C224.054656,145.21159 230.078765,145.852453 235.405127,146.849365 C240.731488,147.846278 245.24601,149.355866 248.948828,151.378174 C252.651646,153.400482 255.485683,156.020899 257.451025,159.239502 C259.416367,162.458105 260.399023,166.431454 260.399023,171.159668 C260.399023,175.887882 259.131539,180.06061 256.596533,183.677979 C254.061527,187.295347 250.757523,190.343005 246.684423,192.821045 C242.611324,195.299085 238.025595,197.178949 232.927099,198.460693 C227.828604,199.742438 222.68746,200.383301 217.503515,200.383301 C209.642148,200.383301 202.934451,199.699714 197.380224,198.33252 C191.825997,196.965325 187.311475,195.156668 183.836523,192.906494 C180.361571,190.65632 177.826603,188.121352 176.231543,185.301514 C174.636483,182.481675 173.838964,179.619155 173.838964,176.713867 C173.838964,174.036445 174.351655,171.586925 175.37705,169.365234 C176.402446,167.143544 177.698413,165.149748 179.26499,163.383789 C180.831567,161.61783 182.569017,160.094001 184.477392,158.812256 C186.385768,157.530511 188.222907,156.490889 189.988867,155.693359 C186.229082,154.554031 183.266872,152.91627 181.102148,150.780029 C178.937424,148.643788 177.855078,145.69582 177.855078,141.936035 C177.855078,139.885244 178.28232,137.877207 179.136816,135.911865 C179.991312,133.946523 181.18759,132.137866 182.725683,130.48584 C184.263777,128.833813 186.100917,127.438157 188.237158,126.298828 C190.373399,125.1595 192.723229,124.361981 195.286718,123.90625 C192.609296,122.652989 190.188259,121.129159 188.023535,119.334717 C185.85881,117.540274 184.007429,115.517996 182.469336,113.267822 C180.931242,111.017648 179.749206,108.553887 178.923193,105.876465 C178.09718,103.199043 177.684179,100.322281 177.684179,97.2460938 C177.684179,92.0051821 178.752284,87.2485565 180.888525,82.9760742 C183.024766,78.7035919 185.816079,75.057795 189.262548,72.0385742 C192.709018,69.0193534 196.639642,66.6980062 201.054541,65.0744629 C205.469439,63.4509196 209.955478,62.6391602 214.512793,62.6391602 C218.443476,62.6391602 222.317135,63.1945745 226.133886,64.3054199 C229.950637,65.4162653 233.482503,67.0540256 236.729589,69.21875 C237.584086,66.7691935 238.75188,64.4905704 240.233007,62.3828125 C241.714135,60.2750546 243.380378,58.4663975 245.231787,56.9567871 C247.083196,55.4471767 249.091232,54.265141 251.255957,53.4106445 C253.420681,52.5561481 255.670821,52.1289062 258.006445,52.1289062 C260.968699,52.1289062 263.261564,52.8979415 264.885107,54.4360352 C266.50865,55.9741288 267.32041,58.1103379 267.32041,60.8447266 C267.32041,61.5283237 267.177996,62.297359 266.893164,63.1518555 C266.608332,64.0063519 266.166848,64.80387 265.568701,65.5444336 C264.970553,66.2849972 264.187277,66.9116185 263.218847,67.4243164 C262.250418,67.9370143 261.082624,68.1648766 259.715429,68.1079102 C257.721604,68.0509437 256.098085,67.4385638 254.844824,66.270752 C253.591562,65.1029401 252.794044,63.6645593 252.452246,61.9555664 L252.452246,61.9555664 Z M287.316796,144.584961 C287.316796,146.123055 287.031968,147.575677 286.462304,148.942871 C285.89264,150.310065 285.137846,151.506343 284.1979,152.531738 C283.257954,153.557134 282.175608,154.354652 280.95083,154.924316 C279.726051,155.493981 278.430084,155.778809 277.06289,155.778809 C275.695696,155.778809 274.399729,155.493981 273.174951,154.924316 C271.950172,154.354652 270.867826,153.557134 269.92788,152.531738 C268.987934,151.506343 268.247382,150.310065 267.706201,148.942871 C267.16502,147.575677 266.894433,146.123055 266.894433,144.584961 C266.894433,142.989901 267.179261,141.494555 267.748925,140.098877 C268.31859,138.703199 269.073383,137.492681 270.01333,136.467285 C270.953276,135.441889 272.049863,134.63013 273.303124,134.031982 C274.556386,133.433835 275.866594,133.134766 277.233788,133.134766 C278.657949,133.134766 279.982399,133.433835 281.207177,134.031982 C282.431955,134.63013 283.50006,135.441889 284.411523,136.467285 C285.322986,137.492681 286.035055,138.703199 286.547753,140.098877 C287.060451,141.494555 287.316796,142.989901 287.316796,144.584961 L287.316796,144.584961 Z" id="fog.-copy-6"></path>
        </g>
    </g>
</svg>